<svg width="44" height="44" viewBox="0 0 44 44" fill="none" xmlns="http://www.w3.org/2000/svg">
<path d="M22 43.579C29.9578 43.579 36.9102 39.2735 40.6484 32.8625C36.9359 26.4172 29.975 22.0774 22 22.0774C14.025 22.0774 7.06406 26.4086 3.35156 32.8625C7.08984 39.2735 14.0422 43.579 22 43.579Z" fill="#F22E24"/>
<path d="M6.74609 28.4196C5.43125 29.743 4.28828 31.2297 3.35156 32.8625C4.28828 34.4696 5.43125 35.9477 6.74609 37.2625V28.4196Z" fill="#F4756E"/>
<path d="M32.7852 24.9734V36.6609C32.7852 38.096 31.6164 39.282 30.1813 39.282H9.04065C12.65 41.9804 17.136 43.5875 21.9914 43.5875C29.9492 43.5875 36.9016 39.2734 40.6399 32.8625C38.7664 29.5968 36.0508 26.864 32.7852 24.9734Z" fill="#731611"/>
<path d="M21.9914 25.5406L19.5422 23.0914V19.671H24.432V23.0914L21.9914 25.5406ZM27.8953 13.3289H30.0008C31.1609 13.3289 32.1062 12.3835 32.1062 11.2234C32.1062 10.0632 31.1609 9.11792 30.0008 9.11792H27.8953V13.3289ZM16.0961 13.3289H13.9906C12.8304 13.3289 11.8851 12.3835 11.8851 11.2234C11.8851 10.0632 12.8304 9.11792 13.9906 9.11792H16.0961V13.3289Z" fill="#F29F18"/>
<path d="M22 20.5218C18.1844 20.5218 15.0906 17.4281 15.0906 13.6125V8.80855C15.0906 4.99292 18.1844 1.89917 22 1.89917C25.8156 1.89917 28.9094 4.99292 28.9094 8.80855V13.6125C28.9094 17.4281 25.8156 20.5218 22 20.5218Z" fill="#F4BC62"/>
<path d="M21.9828 1.89062H21.9914C21.6305 1.89062 21.2867 1.925 20.943 1.97656C24.2602 2.48359 26.8125 5.35391 26.8125 8.80859V13.6125C26.8125 17.0758 24.2688 19.9461 20.9516 20.4531C21.2953 20.5047 21.6477 20.5391 22 20.5391H21.9828C25.7985 20.5391 28.875 17.4281 28.875 13.6125V8.80859C28.875 4.99297 25.7985 1.89062 21.9828 1.89062Z" fill="#F29F18"/>
<path d="M18.1328 9.88281H20.2812V10.7422H18.1328V9.88281ZM19.8516 11.6016H20.7109V13.2344H19.8516V11.6016ZM23.7188 9.88281H25.8672V10.7422H23.7188V9.88281ZM23.2891 11.6016H24.1484V13.2344H23.2891V11.6016Z" fill="#595959"/>
<path d="M22 16.861C20.8398 16.861 19.8945 15.9156 19.8945 14.7555H20.7367C20.7367 15.4516 21.3039 16.0188 22 16.0188C22.6961 16.0188 23.2633 15.4516 23.2633 14.7555H24.1055C24.1055 15.9156 23.1601 16.861 22 16.861ZM29.5883 10.8024H30.4305V11.6446H29.5883V10.8024ZM13.5695 10.8024H14.4117V11.6446H13.5695V10.8024Z" fill="#734B0B"/>
<path d="M16.6031 1.43518V7.53674C16.6031 8.41331 15.8898 9.12659 15.0133 9.12659H13.9476V4.08206C13.9562 2.62112 15.1422 1.43518 16.6031 1.43518ZM27.3625 1.43518V7.53674C27.3625 8.41331 28.0758 9.12659 28.9523 9.12659H30.0179V4.08206C30.0093 2.62112 28.8234 1.43518 27.3625 1.43518Z" fill="#595959"/>
<path d="M17.3078 0.421143H26.6578C28.5055 0.421143 30.0094 1.92505 30.0094 3.7727V7.6313H13.9562V3.7727C13.9562 1.92505 15.4601 0.421143 17.3078 0.421143Z" fill="#731611"/>
<path d="M17.3078 0.421143H23.1859C25.0336 0.421143 26.5375 1.92505 26.5375 3.7727V7.58833H13.9562V3.7727C13.9562 1.92505 15.4601 0.421143 17.3078 0.421143Z" fill="#F22E24"/>
<path d="M17.2476 4.29688H26.7266C28.5398 4.29688 30.018 5.76641 30.018 7.58828H13.9562C13.9562 5.76641 15.4258 4.29688 17.2476 4.29688Z" fill="#F22E24"/>
<path d="M17.2476 4.29688H23.2547C25.068 4.29688 26.5461 5.76641 26.5461 7.58828H13.9562C13.9562 5.76641 15.4258 4.29688 17.2476 4.29688Z" fill="#F4756E"/>
<path d="M22 1.8562C20.6508 1.8562 19.5594 2.83589 19.5594 4.29683H24.4492C24.4406 2.83589 23.3492 1.8562 22 1.8562Z" fill="white"/>
<path d="M21.9914 25.5406L20.118 27.4141L15.718 23.0055C16.9555 22.6273 18.2101 22.3609 19.5508 22.2148V23.0914L21.9914 25.5406ZM28.2562 22.9969L23.8476 27.3969L22 25.5406L24.4492 23.0914V22.2148C25.7039 22.3523 27.0273 22.6188 28.2562 22.9969Z" fill="#F4756E"/>
<path d="M32.8281 39.1015H11.1719V40.6914C14.3516 42.5304 18.0727 43.5789 22 43.5789C25.9273 43.5789 29.6484 42.5304 32.8281 40.6914V39.1015ZM11.2062 34.5554H32.7852V39.0671H11.2062V34.5554Z" fill="#EBDEE5"/>
<path d="M11.2062 30.0524H32.7851V34.5641H11.2062V30.0524Z" fill="#EBDEE5"/>
<path d="M11.1719 40.6914C12.0312 41.1727 12.925 41.6797 13.8273 41.9375H20.3844C21.9914 41.9375 23.2891 40.7344 23.2891 39.1016H11.1719V40.6914ZM20.3844 37.4688H11.2062V34.5641H23.2891C23.2891 36.1625 21.9914 37.4688 20.3844 37.4688ZM20.3844 32.9571H11.2062V30.0524H23.2891C23.2891 31.6594 21.9914 32.9571 20.3844 32.9571Z" fill="white"/>
<path d="M25.0594 30.0524H18.932C18.932 31.2985 19.9375 32.3039 21.1836 32.3039H22.7992C24.0539 32.3039 25.0594 31.2985 25.0594 30.0524ZM25.0594 39.0672H18.932C18.932 40.3133 19.9375 41.3188 21.1836 41.3188H22.7992C24.0539 41.3274 25.0594 40.3133 25.0594 39.0672ZM25.0594 34.5555H18.932C18.932 35.8016 19.9375 36.8071 21.1836 36.8071H22.7992C24.0539 36.8156 25.0594 35.8016 25.0594 34.5555Z" fill="#C6BEC3"/>
</svg>
