<svg width="44" height="44" viewBox="0 0 44 44" fill="none" xmlns="http://www.w3.org/2000/svg">
<path d="M23.7738 15.3477C16.1192 16.2772 16.0985 19.8192 17.0267 23.6843L20.9798 27.207C27.7242 29.9158 29.4814 24.5189 30.8193 18.4414L23.7738 15.3477Z" fill="#FAA41A" stroke="#FAA41A" stroke-linecap="round" stroke-linejoin="round"/>
<path d="M30.9953 18.8058C33.7673 18.8553 35.9865 22.0632 35.9521 25.9696C35.9191 29.7481 33.8374 32.8212 31.1589 32.9505C30.7189 32.9505 15.9514 32.9656 15.4798 32.9738C13.1326 33.033 10.527 33.0852 9.17676 31.5851C7.76876 30.0176 7.75776 26.3628 7.99426 24.1051C8.42464 20.0255 12.5744 16.4092 16.8548 15.2611C17.2398 15.1566 19.624 14.41 22.9419 15.1167M20.9399 26.9802C21.6772 27.5421 22.5468 27.9046 23.465 28.0327C24.3831 28.1608 25.3187 28.0502 26.1817 27.7115C27.0446 27.3728 27.8057 26.8175 28.3917 26.0991C28.9776 25.3807 29.3685 24.5235 29.5268 23.6101C29.5763 23.3158 31.3115 12.1728 35.9068 12.7833C36.7455 12.8933 37.6695 13.0927 38.2979 12.529C38.4865 12.36 38.64 12.1554 38.7495 11.927C38.8589 11.6986 38.9223 11.4509 38.9358 11.198C38.9493 10.945 38.9128 10.6919 38.8284 10.4532C38.7439 10.2144 38.6132 9.99462 38.4436 9.80646C38.1009 9.42532 37.6209 9.19586 37.1091 9.16853C36.5973 9.1412 36.0956 9.31823 35.7143 9.66071C36.058 9.31696 36.4334 8.70096 36.4513 8.21558C36.4608 7.96231 36.4204 7.70964 36.3323 7.47201C36.2441 7.23437 36.1101 7.01643 35.9377 6.83064C35.7653 6.64485 35.558 6.49484 35.3276 6.3892C35.0972 6.28356 34.8483 6.22435 34.595 6.21496C33.6806 6.18058 32.7388 6.75808 32.659 7.62846C31.9509 15.4013 23.485 14.3481 20.1699 15.9885C16.8548 17.6302 15.4454 20.2908 16.9868 23.408" fill="#FAA41A"/>
<path d="M30.9953 18.8058C33.7673 18.8553 35.9865 22.0632 35.9521 25.9696C35.9191 29.7481 33.8374 32.8212 31.1589 32.9505C30.7189 32.9505 15.9514 32.9656 15.4798 32.9738C13.1326 33.033 10.527 33.0852 9.17676 31.5851C7.76876 30.0176 7.75776 26.3628 7.99426 24.1051C8.42464 20.0255 12.5744 16.4092 16.8548 15.2611C17.2398 15.1566 19.624 14.41 22.9419 15.1167M20.9399 26.9802C21.6772 27.5421 22.5468 27.9046 23.465 28.0327C24.3831 28.1608 25.3187 28.0502 26.1817 27.7115C27.0446 27.3728 27.8057 26.8175 28.3917 26.0991C28.9776 25.3807 29.3685 24.5235 29.5268 23.6101C29.5763 23.3158 31.3115 12.1728 35.9068 12.7833C36.7455 12.8933 37.6695 13.0927 38.2979 12.529C38.4865 12.36 38.64 12.1554 38.7495 11.927C38.8589 11.6986 38.9223 11.4509 38.9358 11.198C38.9493 10.945 38.9128 10.6919 38.8284 10.4532C38.7439 10.2144 38.6132 9.99462 38.4436 9.80646C38.1009 9.42532 37.6209 9.19586 37.1091 9.16853C36.5973 9.1412 36.0956 9.31823 35.7143 9.66071C36.058 9.31696 36.4334 8.70096 36.4513 8.21558C36.4608 7.96231 36.4204 7.70964 36.3323 7.47201C36.2441 7.23437 36.1101 7.01643 35.9377 6.83064C35.7653 6.64485 35.558 6.49484 35.3276 6.3892C35.0972 6.28356 34.8483 6.22435 34.595 6.21496C33.6806 6.18058 32.7388 6.75808 32.659 7.62846C31.9509 15.4013 23.485 14.3481 20.1699 15.9885C16.8548 17.6302 15.4454 20.2908 16.9868 23.408" stroke="#383747" stroke-linecap="round" stroke-linejoin="round"/>
<path d="M5.06689 35.1093H38.8328C38.8121 36.4265 38.5605 37.5568 37.1759 37.785H7.11427C5.07377 37.4358 5.39827 36.1419 5.06689 35.1093Z" stroke="#383747" stroke-linecap="round" stroke-linejoin="round"/>
<path d="M19.0383 21.2822C19.0335 20.916 19.1015 20.5525 19.2384 20.2128C19.3753 19.8732 19.5784 19.5641 19.8358 19.3036C20.0928 19.0432 20.3989 18.8364 20.7364 18.6953C21.074 18.5541 21.4362 18.4814 21.802 18.4813" stroke="white" stroke-linecap="round" stroke-linejoin="round"/>
</svg>
