<svg width="44" height="44" viewBox="0 0 44 44" fill="none" xmlns="http://www.w3.org/2000/svg">
<path d="M12.2191 9.36609H11.0088V21.0129H12.2191V9.36609Z" fill="#E7A14E"/>
<path d="M32.9912 9.36609H31.7809V21.0129H32.9912V9.36609Z" fill="#E7A14E"/>
<path d="M6.62958 8.49231V10.6325C6.62958 11.5756 7.39419 12.3403 8.33739 12.3403C9.28059 12.3403 10.0452 11.5756 10.0452 10.6325V8.49231H6.62958Z" fill="#CD5248"/>
<path d="M10.0452 8.49231V10.6325C10.0452 11.5756 10.8098 12.3403 11.753 12.3403C12.6962 12.3403 13.4609 11.5756 13.4609 10.6325V8.49231H10.0452Z" fill="#EDEDED"/>
<path d="M13.4609 8.49231V10.6325C13.4609 11.5756 14.2255 12.3403 15.1687 12.3403C16.1119 12.3403 16.8765 11.5756 16.8765 10.6325V8.49231H13.4609Z" fill="#CD5248"/>
<path d="M16.8765 8.49231V10.6325C16.8765 11.5756 17.6411 12.3403 18.5843 12.3403C19.5275 12.3403 20.2922 11.5756 20.2922 10.6325V8.49231H16.8765Z" fill="#EDEDED"/>
<path d="M20.2922 8.49231V10.6325C20.2922 11.5756 21.0568 12.3403 22 12.3403C22.9432 12.3403 23.7078 11.5756 23.7078 10.6325V8.49231H20.2922Z" fill="#CD5248"/>
<path d="M23.7078 8.49231V10.6325C23.7078 11.5756 24.4724 12.3403 25.4156 12.3403C26.3588 12.3403 27.1235 11.5756 27.1235 10.6325V8.49231H23.7078Z" fill="#EDEDED"/>
<path d="M27.1235 8.49231V10.6325C27.1235 11.5756 27.8881 12.3403 28.8313 12.3403C29.7745 12.3403 30.5391 11.5756 30.5391 10.6325V8.49231H27.1235Z" fill="#CD5248"/>
<path d="M30.5391 8.49231V10.6325C30.5391 11.5756 31.3037 12.3403 32.2469 12.3403C33.1901 12.3403 33.9548 11.5756 33.9548 10.6325V8.49231H30.5391Z" fill="#EDEDED"/>
<path d="M33.9548 8.49231V10.6325C33.9548 11.5756 34.7194 12.3403 35.6626 12.3403C36.6058 12.3403 37.3704 11.5756 37.3704 10.6325V8.49231H33.9548Z" fill="#CD5248"/>
<path d="M10.0452 6.28577H6.62952V8.49237H10.0452V6.28577Z" fill="#DE594E"/>
<path d="M13.4609 6.28577H10.0452V8.49237H13.4609V6.28577Z" fill="white"/>
<path d="M16.8765 6.28577H13.4609V8.49237H16.8765V6.28577Z" fill="#DE594E"/>
<path d="M20.2922 6.28577H16.8765V8.49237H20.2922V6.28577Z" fill="white"/>
<path d="M23.7078 6.28577H20.2922V8.49237H23.7078V6.28577Z" fill="#DE594E"/>
<path d="M27.1235 6.28577H23.7078V8.49237H27.1235V6.28577Z" fill="white"/>
<path d="M30.5391 6.28577H27.1235V8.49237H30.5391V6.28577Z" fill="#DE594E"/>
<path d="M33.9548 6.28577H30.5391V8.49237H33.9548V6.28577Z" fill="white"/>
<path d="M37.3705 6.28577H33.9548V8.49237H37.3705V6.28577Z" fill="#DE594E"/>
<path d="M10.4571 23.505V36.873C10.4571 37.3378 10.8338 37.7144 11.2985 37.7144H32.7015C33.1663 37.7144 33.543 37.3378 33.543 36.873V23.505H10.4571Z" fill="#467082"/>
<path d="M34.0989 21.0128H9.90109C9.29989 21.0128 8.8125 21.5001 8.8125 22.1013V34.1336C8.8125 34.7348 9.29989 35.2222 9.90109 35.2222H34.0989C34.7001 35.2222 35.1875 34.7348 35.1875 34.1336V22.1013C35.1875 21.5001 34.7001 21.0128 34.0989 21.0128Z" fill="#4DA0DC"/>
<path d="M26.4697 25.8243C26.2385 24.5247 24.3256 23.5107 22 23.5107C19.6744 23.5107 17.7616 24.5247 17.5303 25.8243H26.4697Z" fill="#FEDA6F"/>
<path d="M26.7745 25.8242H17.2256C16.9119 25.8242 16.6576 26.0785 16.6576 26.3922C16.6576 26.7059 16.9119 26.9601 17.2256 26.9601H26.7745C27.0882 26.9601 27.3424 26.7059 27.3424 26.3922C27.3424 26.0785 27.0882 25.8242 26.7745 25.8242ZM26.7745 28.096H17.2256C16.9119 28.096 16.6576 28.3503 16.6576 28.664C16.6576 28.9777 16.9119 29.2319 17.2256 29.2319H26.7745C27.0882 29.2319 27.3424 28.9777 27.3424 28.664C27.3424 28.3503 27.0882 28.096 26.7745 28.096Z" fill="#EDEDED"/>
<path d="M26.7745 26.9602H17.2256C16.9119 26.9602 16.6576 27.2145 16.6576 27.5282C16.6576 27.8419 16.9119 28.0961 17.2256 28.0961H26.7745C27.0882 28.0961 27.3424 27.8419 27.3424 27.5282C27.3424 27.2145 27.0882 26.9602 26.7745 26.9602Z" fill="#DE594E"/>
<path d="M17.0687 29.2319V30.2244C17.0687 31.1449 17.8148 31.891 18.7352 31.891H25.2649C26.1853 31.891 26.9314 31.1449 26.9314 30.2244V29.2319H17.0687Z" fill="#FEDA6F"/>
<path d="M24.0687 26.9449L25.235 28.1113L26.4013 26.9449H24.0687Z" fill="#4ABBA4"/>
<path d="M17.6984 26.9449L18.8647 28.1113L20.031 26.9449H17.6984Z" fill="#4ABBA4"/>
<path d="M20.1155 26.9449L22.0911 28.9205L24.0667 26.9449H20.1155Z" fill="#4ABBA4"/>
</svg>
