<svg width="24" height="25" viewBox="0 0 24 25" fill="none" xmlns="http://www.w3.org/2000/svg">
<rect opacity="0.01" x="24" y="24.5" width="24" height="24" transform="rotate(180 24 24.5)" fill="#101828"/>
<path d="M17 3.99991C17 3.72377 16.7761 3.49991 16.5 3.49991H14C11.3793 3.36936 9.14528 5.38 9 7.99991V10.6999H6.5C6.22386 10.6999 6 10.9238 6 11.1999V13.7999C6 14.0761 6.22386 14.2999 6.5 14.2999H9V20.9999C9 21.2761 9.22386 21.4999 9.5 21.4999H12.5C12.7761 21.4999 13 21.2761 13 20.9999V14.2999H15.62C15.8487 14.3032 16.0505 14.1508 16.11 13.9299L16.83 11.3299C16.8703 11.1802 16.8389 11.0202 16.7449 10.8969C16.6509 10.7735 16.5051 10.7008 16.35 10.6999H13V7.99991C13.0515 7.48701 13.4845 7.09733 14 7.09991H16.5C16.7761 7.09991 17 6.87605 17 6.59991V3.99991Z" fill="#101828"/>
</svg>
