<svg width="20" height="21" viewBox="0 0 20 21" fill="none" xmlns="http://www.w3.org/2000/svg">
<path opacity="0.01" d="M0 0.5H20V20.5H0" fill="#101828"/>
<path d="M14.5833 12.1667C14.085 13.9002 12.6181 15.1813 10.8333 15.4417C9.45262 15.642 8.04991 15.2708 6.94906 14.4137C5.8482 13.5566 5.14435 12.2877 5 10.9001C4.88813 9.50615 5.36509 8.12909 6.31517 7.103C7.26525 6.07691 8.60162 5.49558 10 5.50006C10.6481 5.50098 11.2901 5.62542 11.8917 5.86673C12.088 5.95486 12.3191 5.87902 12.425 5.69173L13.625 3.4834C13.6772 3.38067 13.6863 3.26139 13.6503 3.15193C13.6143 3.04247 13.5363 2.95183 13.4333 2.90006C10.8137 1.71403 7.76776 1.96236 5.37488 3.55706C2.982 5.15175 1.58035 7.86745 1.66667 10.7417C1.83686 15.0936 5.29277 18.6 9.64167 18.8334C14.2177 19.0363 18.0996 15.5079 18.3333 10.9334V9.26673C18.3289 9.03847 18.1449 8.8545 17.9167 8.85006H10.4167C10.1866 8.85006 10 9.03661 10 9.26673V11.7667C10 11.9969 10.1866 12.1834 10.4167 12.1834H14.5833" fill="#101828"/>
</svg>
