<svg width="24" height="25" viewBox="0 0 24 25" fill="none" xmlns="http://www.w3.org/2000/svg">
<rect opacity="0.01" x="24" y="24.5" width="24" height="24" transform="rotate(180 24 24.5)" fill="#101828"/>
<path d="M15.15 8.89994C13.602 8.89462 12.1155 9.50514 11.0182 10.5969C9.92078 11.6886 9.30263 13.172 9.29999 14.7199V20.5999C9.29999 20.8386 9.39481 21.0675 9.56359 21.2363C9.73237 21.4051 9.96129 21.4999 10.2 21.4999H12.3C12.797 21.4999 13.2 21.097 13.2 20.5999V14.7199C13.1996 14.1686 13.4338 13.6432 13.8441 13.2749C14.2543 12.9066 14.8019 12.7303 15.35 12.7899C16.3559 12.9166 17.1079 13.7761 17.1 14.7899V20.5999C17.1 21.097 17.5029 21.4999 18 21.4999H20.1C20.597 21.4999 21 21.097 21 20.5999V14.7199C20.9973 13.172 20.3792 11.6886 19.2818 10.5969C18.1844 9.50514 16.6979 8.89462 15.15 8.89994Z" fill="#101828"/>
<rect x="3" y="9.80005" width="4.5" height="11.7" rx="0.9" fill="#101828"/>
<circle cx="5.25" cy="5.75" r="2.25" fill="#101828"/>
</svg>
