<svg width="17" height="17" viewBox="0 0 17 17" fill="none" xmlns="http://www.w3.org/2000/svg">
<path d="M15.1667 1.83334L8.50001 8.5M15.1667 1.83334V5.58334M15.1667 1.83334H11.4167M14.3333 8.91667V12.5C14.3333 13.4334 14.3333 13.9001 14.1517 14.2567C13.9919 14.5703 13.7369 14.8252 13.4233 14.985C13.0668 15.1667 12.6001 15.1667 11.6667 15.1667H4.50001C3.56659 15.1667 3.09988 15.1667 2.74336 14.985C2.42976 14.8252 2.17479 14.5703 2.015 14.2567C1.83334 13.9001 1.83334 13.4334 1.83334 12.5V5.33334C1.83334 4.39991 1.83334 3.9332 2.015 3.57669C2.17479 3.26308 2.42976 3.00811 2.74336 2.84832C3.09988 2.66667 3.56659 2.66667 4.50001 2.66667H8.08334" stroke="#772917" stroke-width="2" stroke-linecap="round" stroke-linejoin="round"/>
</svg>
