<svg width="18" height="14" viewBox="0 0 18 14" fill="none" xmlns="http://www.w3.org/2000/svg">
<path d="M16.476 3.66675C16.476 3.66675 13.125 7.83341 9 7.83341C4.875 7.83341 1.52399 3.66675 1.52399 3.66675M5.5 12.8334H12.5C13.9001 12.8334 14.6002 12.8334 15.135 12.5609C15.6054 12.3212 15.9878 11.9388 16.2275 11.4684C16.5 10.9336 16.5 10.2335 16.5 8.83341V5.16675C16.5 3.76662 16.5 3.06655 16.2275 2.53177C15.9878 2.06137 15.6054 1.67892 15.135 1.43923C14.6002 1.16675 13.9001 1.16675 12.5 1.16675H5.5C4.09987 1.16675 3.3998 1.16675 2.86502 1.43923C2.39462 1.67892 2.01217 2.06137 1.77248 2.53177C1.5 3.06655 1.5 3.76662 1.5 5.16675V8.83341C1.5 10.2335 1.5 10.9336 1.77248 11.4684C2.01217 11.9388 2.39462 12.3212 2.86502 12.5609C3.3998 12.8334 4.09987 12.8334 5.5 12.8334Z" stroke="#98A2B3" stroke-width="2" stroke-linecap="round" stroke-linejoin="round"/>
</svg>
