<svg width="20" height="20" viewBox="0 0 20 20" fill="none" xmlns="http://www.w3.org/2000/svg">
<path d="M4.26354 10.6054L6.79571 7.57197C7.05237 7.24198 7.18071 7.07698 7.24796 6.89193C7.30747 6.72818 7.33209 6.55381 7.32024 6.37999C7.30685 6.18355 7.22922 5.98947 7.07396 5.60131L6.48171 4.12069C6.25194 3.54627 6.13706 3.25905 5.93887 3.07079C5.76423 2.90491 5.54538 2.79301 5.30865 2.74856C5.04 2.69811 4.73989 2.77314 4.13969 2.92319L2.50024 3.33311C2.50024 11.6664 8.33332 17.4998 16.6669 17.4998L17.0766 15.8601C17.2266 15.2599 17.3017 14.9598 17.2512 14.6911C17.2068 14.4544 17.0949 14.2356 16.929 14.0609C16.7407 13.8627 16.4535 13.7478 15.8791 13.5181L14.5578 12.9896C14.115 12.8124 13.8936 12.7239 13.6728 12.7171C13.4777 12.7111 13.2839 12.7509 13.1069 12.8332C12.9067 12.9264 12.7381 13.0951 12.4008 13.4323L9.82886 15.9638" stroke="#98A2B3" stroke-width="2" stroke-linecap="round" stroke-linejoin="round"/>
</svg>
