<svg width="24" height="25" viewBox="0 0 24 25" fill="none" xmlns="http://www.w3.org/2000/svg">
<path opacity="0.01" d="M0 0.5H24V24.5H0" fill="#101828"/>
<path d="M8.08 20.5C11.0674 20.6 13.9683 19.4876 16.1229 17.4159C18.2775 15.3441 19.5028 12.4891 19.52 9.50005C20.1977 8.66146 20.7008 7.69588 21 6.66005C21.0456 6.49287 20.9889 6.31449 20.855 6.20441C20.7212 6.09433 20.5352 6.07305 20.38 6.15005C19.6531 6.49998 18.7839 6.34707 18.22 5.77005C17.5108 4.99338 16.5172 4.53701 15.466 4.50498C14.4147 4.47295 13.3952 4.86799 12.64 5.60005C11.599 6.60824 11.1625 8.08832 11.49 9.50005C8.14 9.70005 5.84 8.11005 4 5.93005C3.88705 5.80213 3.70915 5.75312 3.54663 5.80512C3.3841 5.85713 3.26771 6.00032 3.25 6.17005C2.53212 10.1522 4.36687 14.1607 7.85 16.22C6.70964 17.5279 5.10821 18.3447 3.38 18.5C3.19018 18.5315 3.04138 18.6802 3.00975 18.87C2.97811 19.0598 3.07065 19.2487 3.24 19.34C4.74352 20.0914 6.39923 20.4882 8.08 20.5Z" fill="#101828"/>
</svg>
