<svg width="20" height="20" viewBox="0 0 20 20" fill="none" xmlns="http://www.w3.org/2000/svg">
<path fill-rule="evenodd" clip-rule="evenodd" d="M9.99993 9.99998C7.78293 9.99998 5.98093 8.20599 5.98093 5.99998C5.98093 3.79398 7.78293 1.99998 9.99993 1.99998C12.2169 1.99998 14.0189 3.79398 14.0189 5.99998C14.0189 8.20599 12.2169 9.99998 9.99993 9.99998ZM13.7759 10.673C14.6022 10.015 15.2394 9.14995 15.6227 8.16576C16.0059 7.18156 16.1216 6.11336 15.9579 5.06993C15.5609 2.44693 13.3689 0.347977 10.7219 0.0419769C7.06993 -0.381023 3.97193 2.44898 3.97193 5.99998C3.97193 7.88998 4.85193 9.57396 6.22393 10.673C2.85193 11.934 0.389927 14.895 0.00392716 18.891C-0.00956888 19.0311 0.00633118 19.1726 0.0506038 19.3063C0.0948764 19.4399 0.166551 19.5628 0.261045 19.6672C0.355539 19.7716 0.470772 19.855 0.599379 19.9123C0.727985 19.9696 0.867137 19.9995 1.00793 20C1.25473 20.002 1.49336 19.9118 1.67705 19.7469C1.86075 19.5821 1.97626 19.3546 2.00093 19.109C2.40393 14.646 5.83693 12 9.99993 12C14.1629 12 17.5959 14.646 17.9989 19.109C18.0236 19.3546 18.1391 19.5821 18.3228 19.7469C18.5065 19.9118 18.7451 20.002 18.9919 20C19.5879 20 20.0519 19.482 19.9949 18.891C19.6099 14.895 17.1479 11.934 13.7749 10.673" fill="#98A2B3"/>
</svg>
