<svg width="261" height="56" viewBox="0 0 261 56" fill="none" xmlns="http://www.w3.org/2000/svg">
<g clip-path="url(#clip0_4_97)">
<path d="M55.1797 27.2617C55.1798 28.2412 54.987 29.2111 54.6122 30.116C54.2374 31.021 53.688 31.8432 52.9955 32.5358C52.3029 33.2284 51.4806 33.7777 50.5757 34.1525C49.6708 34.5273 48.7009 34.7201 47.7214 34.72H39.3214C37.7276 34.7198 36.1758 34.2091 34.8934 33.2626C33.611 32.3162 32.6655 30.9839 32.1955 29.4609C31.7255 27.938 31.7556 26.3046 32.2816 24.8C32.8076 23.2955 33.8016 21.999 35.1181 21.1006L39.3991 18.1814L42.8433 15.832L43.5214 15.3694L47.2544 17.9156L51.9236 21.1006C52.927 21.7848 53.7482 22.7037 54.3157 23.7774C54.8831 24.8511 55.1797 26.0473 55.1797 27.2617Z" fill="#FFCD85"/>
<path d="M51.9236 21.1006L47.2544 17.9156L43.5214 15.3694L42.8433 15.832L41.8808 16.4885L43.9731 17.9156L48.6424 21.1006C49.9594 21.9986 50.954 23.295 51.4803 24.7996C52.0067 26.3042 52.0371 27.9379 51.5672 29.461C51.0972 30.9842 50.1516 32.3167 48.8689 33.2632C47.5863 34.2096 46.0342 34.7202 44.4402 34.72H47.7214C49.3154 34.7201 50.8675 34.2095 52.15 33.263C53.4326 32.3166 54.3782 30.9841 54.8482 29.461C55.3181 27.9378 55.2877 26.3042 54.7614 24.7996C54.2351 23.2951 53.2405 21.9987 51.9236 21.1006Z" fill="#FFC570"/>
<path d="M24.1369 27.2617C24.137 28.2412 23.9442 29.2111 23.5694 30.116C23.1946 31.021 22.6453 31.8432 21.9527 32.5358C21.2601 33.2284 20.4379 33.7777 19.5329 34.1525C18.628 34.5273 17.6581 34.7201 16.6786 34.72H8.27862C6.68468 34.72 5.13267 34.2094 3.85014 33.2629C2.56762 32.3164 1.62207 30.984 1.15213 29.4609C0.682184 27.9378 0.712579 26.3042 1.23885 24.7997C1.76513 23.2951 2.75959 21.9987 4.07644 21.1006L8.74565 17.9156L12.4786 15.3694L13.1567 15.832L20.8819 21.1006C21.885 21.785 22.7059 22.704 23.2731 23.7777C23.8404 24.8514 24.1369 26.0474 24.1369 27.2617Z" fill="#FFCD85"/>
<path d="M41.8808 25.6845C41.8809 26.8507 41.6513 28.0054 41.205 29.0828C40.7588 30.1601 40.1047 31.1391 39.28 31.9636C38.4554 32.7881 37.4764 33.4421 36.399 33.8882C35.3215 34.3343 34.1668 34.5638 33.0006 34.5636H22.9994C21.1017 34.5635 19.254 33.9555 17.7271 32.8288C16.2002 31.702 15.0745 30.1157 14.5149 28.3024C13.9553 26.4891 13.9914 24.5443 14.6177 22.753C15.2441 20.9617 16.4279 19.4182 17.9955 18.3487L23.9061 14.3172L27.2475 12.0378L28 11.5248L28.677 11.9864L31.8008 14.117L38.0045 18.3487C39.1991 19.1635 40.1766 20.2577 40.8521 21.5361C41.5276 22.8145 41.8808 24.2386 41.8808 25.6845Z" fill="#FFC166"/>
<path d="M38.0045 18.3487L31.8008 14.117L28.677 11.9864L28 11.5248L27.2475 12.0378L25.5391 13.2032L26.8789 14.117L33.0827 18.3487C34.6506 19.418 35.8347 20.9615 36.4614 22.7529C37.088 24.5443 37.1241 26.4893 36.5645 28.3028C36.0049 30.1162 34.8789 31.7026 33.3518 32.8294C31.8246 33.9561 29.9766 34.5639 28.0788 34.5636H33.0006C34.8984 34.5638 36.7463 33.9559 38.2733 32.8291C39.8004 31.7024 40.9263 30.116 41.4859 28.3026C42.0455 26.4892 42.0094 24.5443 41.3829 22.7529C40.7563 20.9616 39.5724 19.4181 38.0045 18.3487Z" fill="#FFB74E"/>
<path d="M48.721 38.9903H7.27891C6.7979 38.9903 6.32278 38.8846 5.88719 38.6805C5.4516 38.4765 5.06619 38.1792 4.75825 37.8097L0.820312 33.0841H55.1797L51.2416 37.8097C50.9337 38.1792 50.5483 38.4765 50.1127 38.6805C49.6771 38.8846 49.202 38.9903 48.721 38.9903Z" fill="#EEEEEE"/>
<path d="M50.2578 33.0841L46.3198 37.8096C46.0119 38.1792 45.6265 38.4765 45.1909 38.6805C44.7553 38.8845 44.2801 38.9903 43.7991 38.9903H48.721C49.202 38.9903 49.6771 38.8845 50.1127 38.6805C50.5483 38.4765 50.9337 38.1792 51.2417 37.8096L55.1797 33.0841H50.2578ZM10.3967 38.9903H45.6034V40.3151C45.6034 41.1853 45.2577 42.0199 44.6423 42.6353C44.027 43.2506 43.1924 43.5963 42.3221 43.5963H13.6779C12.8077 43.5963 11.9731 43.2506 11.3577 42.6353C10.7424 42.0199 10.3967 41.1853 10.3967 40.3151V38.9903Z" fill="#DEDEDE"/>
<path d="M40.6815 38.9903V40.3151C40.6815 41.1853 40.3358 42.0199 39.7204 42.6353C39.105 43.2506 38.2704 43.5963 37.4002 43.5963H42.3221C43.1923 43.5963 44.0269 43.2506 44.6423 42.6353C45.2576 42.0199 45.6033 41.1853 45.6033 40.3151V38.9903H40.6815Z" fill="#BEBEBE"/>
<path d="M55.1797 32.2638H54.3204C54.9978 31.3693 55.4863 30.3465 55.7564 29.2575C56.0265 28.1685 56.0725 27.036 55.8916 25.9287C55.7107 24.8214 55.3067 23.7624 54.7042 22.8159C54.1016 21.8694 53.313 21.0553 52.3862 20.4228L43.9836 14.6913L43.9826 14.6907L43.9799 14.6887C43.9497 14.6687 43.9181 14.6507 43.8855 14.6348C43.8779 14.6311 43.8703 14.6274 43.8625 14.6239C43.8296 14.6084 43.7956 14.5952 43.7608 14.5843C43.7251 14.5736 43.6886 14.5654 43.6517 14.5597C43.6449 14.5586 43.6381 14.5576 43.6313 14.5567C43.559 14.547 43.4858 14.547 43.4135 14.5566C43.4053 14.5577 43.3973 14.5588 43.3892 14.5601C43.3538 14.5657 43.3188 14.5736 43.2844 14.5837L43.2748 14.587C43.2423 14.5974 43.2105 14.6099 43.1795 14.6242C43.1729 14.6272 43.1664 14.63 43.1599 14.6332C43.1263 14.6495 43.0939 14.6682 43.0629 14.689C43.0617 14.6898 43.0604 14.6904 43.0591 14.6912L38.5771 17.7485C38.5401 17.7226 38.5038 17.696 38.4664 17.6705L28.4622 10.8466C28.461 10.8459 28.4597 10.8453 28.4585 10.8444C28.4274 10.8236 28.395 10.805 28.3614 10.7887C28.3549 10.7854 28.3484 10.7826 28.3418 10.7796C28.3109 10.7653 28.2792 10.7529 28.2468 10.7426C28.2435 10.7415 28.2402 10.7402 28.2369 10.7392C28.2025 10.7291 28.1675 10.7212 28.1321 10.7156C28.1241 10.7143 28.1161 10.7131 28.1081 10.7121C28.0356 10.7024 27.9621 10.7024 27.8896 10.7122L27.8701 10.715C27.7969 10.7268 27.7258 10.7485 27.6585 10.7795C27.6509 10.783 27.6434 10.7865 27.6359 10.7902C27.6033 10.8061 27.5717 10.8241 27.5415 10.8442L27.539 10.846L27.5378 10.8466L17.5336 17.6705C17.4962 17.696 17.4599 17.7226 17.423 17.7485L12.9408 14.6913C12.9397 14.6905 12.9384 14.69 12.9372 14.6891C12.9061 14.6682 12.8736 14.6495 12.8399 14.6331C12.8335 14.63 12.8272 14.6272 12.8208 14.6243C12.7896 14.6099 12.7575 14.5974 12.7247 14.5869L12.7158 14.5837C12.6812 14.5735 12.646 14.5656 12.6104 14.56C12.6026 14.5588 12.5949 14.5577 12.5871 14.5567C12.5143 14.5469 12.4406 14.5469 12.3678 14.5567C12.3616 14.5576 12.3553 14.5586 12.3491 14.5596C12.2757 14.5713 12.2044 14.593 12.1369 14.6241C12.1294 14.6275 12.122 14.631 12.1147 14.6346C12.082 14.6505 12.0504 14.6686 12.0201 14.6887L12.0174 14.6907L12.0164 14.6913L3.61364 20.4227C2.6868 21.0551 1.89814 21.8693 1.29555 22.8158C0.692957 23.7623 0.289001 24.8213 0.108207 25.9287C-0.0725869 27.0361 -0.0264484 28.1686 0.243822 29.2576C0.514092 30.3466 1.00286 31.3693 1.68044 32.2637H0.820315C0.664365 32.2636 0.511637 32.3081 0.380032 32.3917C0.248426 32.4754 0.143397 32.5948 0.0772539 32.7361C0.0111111 32.8773 -0.0134041 33.0344 0.0065816 33.1891C0.0265673 33.3438 0.0902259 33.4895 0.190096 33.6093L4.12814 38.3349C4.51258 38.7973 4.99425 39.1694 5.53886 39.4244C6.08347 39.6795 6.67763 39.8114 7.27902 39.8107H9.57633V40.315C9.57755 41.4024 10.0101 42.445 10.779 43.2139C11.5479 43.9828 12.5905 44.4153 13.6779 44.4165H42.3221C43.4095 44.4153 44.4521 43.9828 45.221 43.2139C45.9899 42.445 46.4225 41.4024 46.4237 40.315V39.8107H48.721C49.3224 39.8114 49.9165 39.6795 50.4611 39.4244C51.0058 39.1694 51.4874 38.7973 51.8719 38.3349L55.8099 33.6093C55.9097 33.4895 55.9734 33.3438 55.9933 33.1891C56.0133 33.0345 55.9888 32.8774 55.9226 32.7362C55.8565 32.5949 55.7515 32.4755 55.6199 32.3918C55.4883 32.3082 55.3356 32.2638 55.1797 32.2638ZM43.5111 16.369C46.2777 18.4365 47.7644 21.5351 47.3215 24.3962C47.0503 26.1484 46.1157 27.4672 45.3794 28.2652C45.2326 28.4253 45.1552 28.637 45.1642 28.8539C45.1733 29.0709 45.2679 29.2754 45.4275 29.4227C45.5871 29.5699 45.7986 29.6479 46.0156 29.6395C46.2326 29.6311 46.4374 29.537 46.5851 29.3778C47.8627 27.9931 48.6781 26.3574 48.9428 24.6473C49.2069 22.941 48.9185 21.175 48.1686 19.5319L51.4619 21.7782C52.3 22.3497 52.9959 23.1057 53.4962 23.9881C53.9965 24.8705 54.2878 25.8559 54.3477 26.8685C54.4077 27.8811 54.2347 28.894 53.8421 29.8293C53.4494 30.7646 52.8475 31.5974 52.0827 32.2638H40.1273C41.8237 30.4267 42.7451 28.0053 42.699 25.5051C42.653 23.0049 41.6431 20.6192 39.8801 18.8458L43.5111 16.369ZM17.9505 19.403L17.9604 19.3954C18.1215 19.2659 18.2875 19.1427 18.458 19.026L22.8453 16.0334C22.8347 16.0542 22.8231 16.0745 22.8126 16.0953C21.7547 18.185 21.3699 20.4161 21.6998 22.547C22.0102 24.5525 22.9672 26.4717 24.4673 28.0972C24.54 28.1777 24.628 28.2429 24.726 28.2892C24.8241 28.3354 24.9304 28.3617 25.0387 28.3667C25.147 28.3716 25.2553 28.3549 25.3571 28.3178C25.459 28.2806 25.5525 28.2236 25.6322 28.15C25.7119 28.0765 25.7762 27.9879 25.8214 27.8893C25.8666 27.7908 25.8919 27.6842 25.8957 27.5759C25.8995 27.4675 25.8817 27.3594 25.8435 27.258C25.8053 27.1565 25.7473 27.0636 25.6729 26.9847C24.7816 26.0189 23.65 24.4213 23.321 22.296C22.7873 18.8482 24.5625 15.1195 27.8732 12.6234C31.347 15.1177 33.226 18.9489 32.679 22.484C32.3498 24.6092 31.2184 26.2067 30.3271 27.1726C30.2527 27.2515 30.1947 27.3444 30.1565 27.4459C30.1183 27.5474 30.1005 27.6554 30.1043 27.7638C30.1081 27.8721 30.1334 27.9787 30.1786 28.0772C30.2238 28.1758 30.2882 28.2644 30.3678 28.3379C30.4475 28.4115 30.541 28.4685 30.6429 28.5057C30.7447 28.5428 30.853 28.5595 30.9613 28.5546C31.0696 28.5496 31.1759 28.5233 31.274 28.4771C31.372 28.4308 31.46 28.3656 31.5327 28.2852C33.0328 26.6596 33.9898 24.7403 34.3002 22.735C34.6301 20.604 34.2452 18.3729 33.1874 16.2833C33.1269 16.1638 33.0643 16.0452 32.9995 15.9275L37.542 19.026C38.6165 19.759 39.4977 20.7411 40.1103 21.8886C40.7228 23.036 41.0486 24.3147 41.0597 25.6154C41.0708 26.9161 40.7669 28.2001 40.174 29.3578C39.5811 30.5156 38.7168 31.5126 37.6549 32.2638H18.3451C17.3268 31.5436 16.4896 30.5968 15.8994 29.498C15.3091 28.3992 14.982 27.1785 14.9438 25.9318C14.9055 24.6851 15.1572 23.4465 15.6789 22.3137C16.2007 21.1808 16.9783 20.1843 17.9505 19.403ZM1.64063 27.2621C1.64025 26.1811 1.90406 25.1164 2.40908 24.1607C2.91411 23.2049 3.64505 22.3871 4.5383 21.7783L7.83158 19.5319C7.0816 21.1751 6.79317 22.9411 7.05721 24.6473C7.322 26.3575 8.13728 27.9932 9.415 29.3779C9.56272 29.5371 9.76752 29.6312 9.98451 29.6396C10.2015 29.648 10.413 29.5701 10.5726 29.4228C10.7322 29.2755 10.8269 29.071 10.8359 28.854C10.8449 28.6371 10.7676 28.4254 10.6208 28.2654C9.88444 27.4674 8.94983 26.1485 8.67858 24.3963C8.23561 21.5351 9.72245 18.4365 12.489 16.369L16.1201 18.8459C14.3571 20.6193 13.3472 23.005 13.3011 25.5052C13.2551 28.0054 14.1764 30.4267 15.8728 32.2639H3.91814C3.20208 31.6422 2.62809 30.8738 2.23513 30.0108C1.84216 29.1478 1.63941 28.2103 1.64063 27.2621ZM44.7832 40.3151C44.7824 40.9675 44.5229 41.5931 44.0615 42.0544C43.6002 42.5158 42.9747 42.7753 42.3222 42.776H13.678C13.0256 42.7753 12.4 42.5158 11.9387 42.0544C11.4773 41.5931 11.2178 40.9675 11.2171 40.3151V39.8108H44.7832V40.3151ZM50.6116 37.2845C50.381 37.562 50.092 37.7853 49.7652 37.9384C49.4384 38.0914 49.0819 38.1706 48.7211 38.1701H7.27891C6.91806 38.1706 6.56156 38.0914 6.23478 37.9384C5.90801 37.7853 5.61901 37.562 5.38836 37.2845L2.57163 33.9045H52.3755C52.378 33.9045 52.3807 33.905 52.3833 33.905C52.385 33.905 52.3868 33.9045 52.3884 33.9045H53.4282L50.6116 37.2845Z" fill="#272A33"/>
</g>
<path d="M74.9006 31.4091H79.0824L81.1847 34.1136L83.2528 36.5227L87.1506 41.4091H82.5597L79.8778 38.1136L78.5028 36.1591L74.9006 31.4091ZM87.5028 27.8636C87.5028 30.4015 87.0218 32.5606 86.0597 34.3409C85.1051 36.1212 83.8021 37.4811 82.1506 38.4205C80.5066 39.3523 78.6581 39.8182 76.6051 39.8182C74.5369 39.8182 72.6809 39.3485 71.0369 38.4091C69.393 37.4697 68.0938 36.1098 67.1392 34.3295C66.1847 32.5492 65.7074 30.3939 65.7074 27.8636C65.7074 25.3258 66.1847 23.1667 67.1392 21.3864C68.0938 19.6061 69.393 18.25 71.0369 17.3182C72.6809 16.3788 74.5369 15.9091 76.6051 15.9091C78.6581 15.9091 80.5066 16.3788 82.1506 17.3182C83.8021 18.25 85.1051 19.6061 86.0597 21.3864C87.0218 23.1667 87.5028 25.3258 87.5028 27.8636ZM82.5142 27.8636C82.5142 26.2197 82.268 24.8333 81.7756 23.7045C81.2907 22.5758 80.6051 21.7197 79.7188 21.1364C78.8324 20.553 77.7945 20.2614 76.6051 20.2614C75.4157 20.2614 74.3778 20.553 73.4915 21.1364C72.6051 21.7197 71.9157 22.5758 71.4233 23.7045C70.9384 24.8333 70.696 26.2197 70.696 27.8636C70.696 29.5076 70.9384 30.8939 71.4233 32.0227C71.9157 33.1515 72.6051 34.0076 73.4915 34.5909C74.3778 35.1742 75.4157 35.4659 76.6051 35.4659C77.7945 35.4659 78.8324 35.1742 79.7188 34.5909C80.6051 34.0076 81.2907 33.1515 81.7756 32.0227C82.268 30.8939 82.5142 29.5076 82.5142 27.8636ZM102.5 32.0682V22.0455H107.341V39.5H102.693V36.3295H102.511C102.117 37.3523 101.462 38.1742 100.545 38.7955C99.6364 39.4167 98.5265 39.7273 97.2159 39.7273C96.0492 39.7273 95.0227 39.4621 94.1364 38.9318C93.25 38.4015 92.5568 37.6477 92.0568 36.6705C91.5644 35.6932 91.3144 34.5227 91.3068 33.1591V22.0455H96.1477V32.2955C96.1553 33.3258 96.4318 34.1402 96.9773 34.7386C97.5227 35.3371 98.2538 35.6364 99.1705 35.6364C99.7538 35.6364 100.299 35.5038 100.807 35.2386C101.314 34.9659 101.723 34.5644 102.034 34.0341C102.352 33.5038 102.508 32.8485 102.5 32.0682ZM119.418 39.8409C117.622 39.8409 116.077 39.4773 114.781 38.75C113.493 38.0152 112.501 36.9773 111.804 35.6364C111.107 34.2879 110.759 32.6932 110.759 30.8523C110.759 29.0568 111.107 27.4811 111.804 26.125C112.501 24.7689 113.482 23.7121 114.747 22.9545C116.02 22.197 117.512 21.8182 119.224 21.8182C120.376 21.8182 121.448 22.0038 122.44 22.375C123.44 22.7386 124.312 23.2879 125.054 24.0227C125.804 24.7576 126.387 25.6818 126.804 26.7955C127.221 27.9015 127.429 29.197 127.429 30.6818V32.0114H112.69V29.0114H122.872C122.872 28.3144 122.721 27.697 122.418 27.1591C122.115 26.6212 121.694 26.2008 121.156 25.8977C120.626 25.5871 120.009 25.4318 119.304 25.4318C118.569 25.4318 117.918 25.6023 117.349 25.9432C116.789 26.2765 116.349 26.7273 116.031 27.2955C115.713 27.8561 115.55 28.4811 115.543 29.1705V32.0227C115.543 32.8864 115.702 33.6326 116.02 34.2614C116.346 34.8902 116.804 35.375 117.395 35.7159C117.986 36.0568 118.687 36.2273 119.497 36.2273C120.035 36.2273 120.527 36.1515 120.974 36C121.421 35.8485 121.804 35.6212 122.122 35.3182C122.44 35.0152 122.683 34.6439 122.849 34.2045L127.327 34.5C127.099 35.5758 126.634 36.5152 125.929 37.3182C125.232 38.1136 124.33 38.7348 123.224 39.1818C122.126 39.6212 120.857 39.8409 119.418 39.8409ZM138.793 39.8409C136.997 39.8409 135.452 39.4773 134.156 38.75C132.868 38.0152 131.876 36.9773 131.179 35.6364C130.482 34.2879 130.134 32.6932 130.134 30.8523C130.134 29.0568 130.482 27.4811 131.179 26.125C131.876 24.7689 132.857 23.7121 134.122 22.9545C135.395 22.197 136.887 21.8182 138.599 21.8182C139.751 21.8182 140.823 22.0038 141.815 22.375C142.815 22.7386 143.687 23.2879 144.429 24.0227C145.179 24.7576 145.762 25.6818 146.179 26.7955C146.596 27.9015 146.804 29.197 146.804 30.6818V32.0114H132.065V29.0114H142.247C142.247 28.3144 142.096 27.697 141.793 27.1591C141.49 26.6212 141.069 26.2008 140.531 25.8977C140.001 25.5871 139.384 25.4318 138.679 25.4318C137.944 25.4318 137.293 25.6023 136.724 25.9432C136.164 26.2765 135.724 26.7273 135.406 27.2955C135.088 27.8561 134.925 28.4811 134.918 29.1705V32.0227C134.918 32.8864 135.077 33.6326 135.395 34.2614C135.721 34.8902 136.179 35.375 136.77 35.7159C137.361 36.0568 138.062 36.2273 138.872 36.2273C139.41 36.2273 139.902 36.1515 140.349 36C140.796 35.8485 141.179 35.6212 141.497 35.3182C141.815 35.0152 142.058 34.6439 142.224 34.2045L146.702 34.5C146.474 35.5758 146.009 36.5152 145.304 37.3182C144.607 38.1136 143.705 38.7348 142.599 39.1818C141.501 39.6212 140.232 39.8409 138.793 39.8409ZM155.054 29.4091V39.5H150.213V22.0455H154.827V25.125H155.031C155.418 24.1098 156.065 23.3068 156.974 22.7159C157.884 22.1174 158.986 21.8182 160.281 21.8182C161.493 21.8182 162.55 22.0833 163.452 22.6136C164.353 23.1439 165.054 23.9015 165.554 24.8864C166.054 25.8636 166.304 27.0303 166.304 28.3864V39.5H161.463V29.25C161.471 28.1818 161.198 27.3485 160.645 26.75C160.092 26.1439 159.33 25.8409 158.361 25.8409C157.709 25.8409 157.134 25.9811 156.634 26.2614C156.141 26.5417 155.755 26.9508 155.474 27.4886C155.202 28.0189 155.062 28.6591 155.054 29.4091ZM179.756 22.0455V25.6818H168.983V22.0455H179.756ZM171.449 39.5V20.7841C171.449 19.5189 171.695 18.4697 172.188 17.6364C172.688 16.803 173.369 16.178 174.233 15.7614C175.097 15.3447 176.078 15.1364 177.176 15.1364C177.919 15.1364 178.597 15.1932 179.21 15.3068C179.831 15.4205 180.294 15.5227 180.597 15.6136L179.733 19.25C179.544 19.1894 179.309 19.1326 179.028 19.0795C178.756 19.0265 178.475 19 178.188 19C177.475 19 176.979 19.1667 176.699 19.5C176.419 19.8258 176.278 20.2841 176.278 20.875V39.5H171.449ZM182.963 39.5V22.0455H187.804V39.5H182.963ZM185.395 19.7955C184.675 19.7955 184.058 19.5568 183.543 19.0795C183.035 18.5947 182.781 18.0152 182.781 17.3409C182.781 16.6742 183.035 16.1023 183.543 15.625C184.058 15.1402 184.675 14.8977 185.395 14.8977C186.115 14.8977 186.728 15.1402 187.236 15.625C187.751 16.1023 188.009 16.6742 188.009 17.3409C188.009 18.0152 187.751 18.5947 187.236 19.0795C186.728 19.5568 186.115 19.7955 185.395 19.7955ZM206.455 27.0227L202.023 27.2955C201.947 26.9167 201.784 26.5758 201.534 26.2727C201.284 25.9621 200.955 25.7159 200.545 25.5341C200.144 25.3447 199.663 25.25 199.102 25.25C198.352 25.25 197.72 25.4091 197.205 25.7273C196.689 26.0379 196.432 26.4545 196.432 26.9773C196.432 27.3939 196.598 27.7462 196.932 28.0341C197.265 28.322 197.837 28.553 198.648 28.7273L201.807 29.3636C203.504 29.7121 204.769 30.2727 205.602 31.0455C206.436 31.8182 206.852 32.8333 206.852 34.0909C206.852 35.2348 206.515 36.2386 205.841 37.1023C205.174 37.9659 204.258 38.6402 203.091 39.125C201.932 39.6023 200.595 39.8409 199.08 39.8409C196.769 39.8409 194.928 39.3598 193.557 38.3977C192.193 37.428 191.394 36.1098 191.159 34.4432L195.92 34.1932C196.064 34.8977 196.413 35.4356 196.966 35.8068C197.519 36.1705 198.227 36.3523 199.091 36.3523C199.939 36.3523 200.621 36.1894 201.136 35.8636C201.659 35.5303 201.924 35.1023 201.932 34.5795C201.924 34.1402 201.739 33.7803 201.375 33.5C201.011 33.2121 200.451 32.9924 199.693 32.8409L196.67 32.2386C194.966 31.8977 193.697 31.3068 192.864 30.4659C192.038 29.625 191.625 28.553 191.625 27.25C191.625 26.1288 191.928 25.1629 192.534 24.3523C193.148 23.5417 194.008 22.9167 195.114 22.4773C196.227 22.0379 197.53 21.8182 199.023 21.8182C201.227 21.8182 202.962 22.2841 204.227 23.2159C205.5 24.1477 206.242 25.4167 206.455 27.0227ZM214.991 29.4091V39.5H210.151V16.2273H214.855V25.125H215.06C215.454 24.0947 216.09 23.2879 216.969 22.7045C217.848 22.1136 218.95 21.8182 220.276 21.8182C221.488 21.8182 222.545 22.0833 223.446 22.6136C224.355 23.1364 225.06 23.8902 225.56 24.875C226.067 25.8523 226.317 27.0227 226.31 28.3864V39.5H221.469V29.25C221.476 28.1742 221.204 27.3371 220.651 26.7386C220.105 26.1402 219.34 25.8409 218.355 25.8409C217.696 25.8409 217.113 25.9811 216.605 26.2614C216.105 26.5417 215.711 26.9508 215.423 27.4886C215.143 28.0189 214.999 28.6591 214.991 29.4091ZM238.324 39.8409C236.528 39.8409 234.983 39.4773 233.688 38.75C232.4 38.0152 231.407 36.9773 230.71 35.6364C230.013 34.2879 229.665 32.6932 229.665 30.8523C229.665 29.0568 230.013 27.4811 230.71 26.125C231.407 24.7689 232.388 23.7121 233.653 22.9545C234.926 22.197 236.419 21.8182 238.131 21.8182C239.282 21.8182 240.354 22.0038 241.347 22.375C242.347 22.7386 243.218 23.2879 243.96 24.0227C244.71 24.7576 245.294 25.6818 245.71 26.7955C246.127 27.9015 246.335 29.197 246.335 30.6818V32.0114H231.597V29.0114H241.778C241.778 28.3144 241.627 27.697 241.324 27.1591C241.021 26.6212 240.6 26.2008 240.062 25.8977C239.532 25.5871 238.915 25.4318 238.21 25.4318C237.475 25.4318 236.824 25.6023 236.256 25.9432C235.695 26.2765 235.256 26.7273 234.938 27.2955C234.619 27.8561 234.456 28.4811 234.449 29.1705V32.0227C234.449 32.8864 234.608 33.6326 234.926 34.2614C235.252 34.8902 235.71 35.375 236.301 35.7159C236.892 36.0568 237.593 36.2273 238.403 36.2273C238.941 36.2273 239.434 36.1515 239.881 36C240.328 35.8485 240.71 35.6212 241.028 35.3182C241.347 35.0152 241.589 34.6439 241.756 34.2045L246.233 34.5C246.006 35.5758 245.54 36.5152 244.835 37.3182C244.138 38.1136 243.237 38.7348 242.131 39.1818C241.032 39.6212 239.763 39.8409 238.324 39.8409ZM249.744 39.5V22.0455H254.438V25.0909H254.619C254.938 24.0076 255.472 23.1894 256.222 22.6364C256.972 22.0758 257.835 21.7955 258.812 21.7955C259.055 21.7955 259.316 21.8106 259.597 21.8409C259.877 21.8712 260.123 21.9129 260.335 21.9659V26.2614C260.108 26.1932 259.794 26.1326 259.392 26.0795C258.991 26.0265 258.623 26 258.29 26C257.578 26 256.941 26.1553 256.381 26.4659C255.828 26.7689 255.388 27.1932 255.062 27.7386C254.744 28.2841 254.585 28.9129 254.585 29.625V39.5H249.744Z" fill="#101828"/>
<defs>
<clipPath id="clip0_4_97">
<rect width="56" height="56" fill="white"/>
</clipPath>
</defs>
</svg>
